<?xml version="1.0" standalone="no"?>
<!DOCTYPE svg PUBLIC "-//W3C//DTD SVG 20010904//EN"
 "http://www.w3.org/TR/2001/REC-SVG-20010904/DTD/svg10.dtd">
<svg version="1.0" xmlns="http://www.w3.org/2000/svg"
 width="20" height="20" viewBox="0 0 512.000000 512.000000"
 preserveAspectRatio="xMidYMid meet">

<g transform="translate(0.000000,512.000000) scale(0.100000,-0.100000)"
fill="#9B9B9B" stroke="none">
<path d="M650 5104 c-212 -45 -395 -224 -452 -439 -19 -74 -19 -4136 0 -4210
43 -162 169 -319 312 -389 143 -69 36 -66 1871 -66 1604 0 1658 1 1731 19 118
30 193 73 278 160 87 87 132 165 160 277 19 73 20 113 20 808 l0 730 159 161
c181 183 204 218 205 315 1 111 -10 127 -195 316 l-169 170 0 815 c0 780 -1
819 -20 893 -28 112 -73 190 -160 277 -85 87 -160 130 -278 160 -73 18 -126
19 -1736 18 -1385 0 -1672 -3 -1726 -15z m3427 -158 c160 -43 276 -160 319
-321 8 -27 14 -83 14 -122 l0 -73 -2035 0 -2035 0 0 59 c0 227 127 400 333
456 77 20 3326 22 3404 1z m333 -1266 l0 -590 -27 7 c-54 15 -146 8 -193 -15
-33 -16 -252 -228 -817 -794 -425 -425 -775 -776 -778 -779 -11 -12 -265 -905
-265 -933 0 -39 35 -76 72 -76 15 0 232 59 481 131 l452 131 538 536 537 537
0 -645 c0 -507 -3 -656 -14 -695 -43 -161 -159 -278 -319 -321 -81 -21 -3318
-21 -3400 1 -170 44 -296 177 -327 344 -6 35 -10 706 -10 1902 l0 1849 2035 0
2035 0 0 -590z m-46 -750 c17 -11 115 -104 218 -207 241 -243 242 -247 104
-383 l-66 -65 -255 255 c-140 140 -255 260 -255 265 0 12 103 114 140 139 33
22 76 20 114 -4z m-114 -515 l255 -255 -603 -603 -602 -602 -257 258 -258 257
600 600 c330 330 602 600 605 600 3 0 120 -115 260 -255z m-1120 -1535 c0 -6
-593 -181 -597 -176 -2 1 36 138 84 304 l87 302 213 -212 c117 -117 213 -215
213 -218z"/>
<path d="M695 3955 l-25 -24 0 -514 c0 -505 0 -515 21 -541 l20 -26 768 0 768
0 21 23 22 23 0 521 0 522 -26 20 c-26 21 -33 21 -786 21 l-759 0 -24 -25z
m1435 -540 l0 -405 -650 0 -650 0 0 405 0 405 650 0 650 0 0 -405z"/>
<path d="M2485 3955 c-30 -29 -32 -74 -6 -106 l19 -24 772 0 772 0 19 24 c26
32 24 77 -6 106 l-24 25 -761 0 -761 0 -24 -25z"/>
<path d="M2481 3464 c-41 -52 -15 -117 51 -129 18 -3 309 -5 646 -3 l614 3 25
29 c29 35 26 80 -8 109 -20 16 -67 17 -664 17 l-644 0 -20 -26z"/>
<path d="M2525 2963 c-62 -16 -86 -90 -42 -131 23 -22 24 -22 518 -22 l496 0
21 23 c30 32 29 77 -4 108 l-26 24 -471 2 c-260 0 -481 -1 -492 -4z"/>
<path d="M691 2284 c-28 -35 -26 -67 3 -101 l24 -28 734 -3 c403 -2 748 0 766
3 18 3 42 15 53 26 26 26 25 83 -1 109 -20 20 -33 20 -789 20 l-770 0 -20 -26z"/>
<path d="M715 1898 c-51 -29 -60 -84 -20 -123 l24 -25 261 0 261 0 24 25 c40
39 32 96 -16 120 -36 19 -502 21 -534 3z"/>
<path d="M1432 1894 c-13 -9 -27 -27 -32 -40 -11 -29 5 -81 30 -94 20 -11
1067 -14 1095 -4 24 10 46 60 39 89 -3 14 -18 34 -31 45 -25 19 -42 20 -552
20 -467 0 -529 -2 -549 -16z"/>
<path d="M695 1475 c-40 -40 -30 -96 22 -123 16 -9 208 -12 718 -12 591 0 700
2 724 15 48 24 56 81 16 120 l-24 25 -716 0 -716 0 -24 -25z"/>
<path d="M733 1093 c-28 -5 -63 -49 -63 -78 0 -12 9 -34 21 -49 20 -25 23 -26
133 -26 121 0 149 9 160 54 10 39 -10 75 -49 91 -32 14 -148 18 -202 8z"/>
<path d="M1193 1093 c-28 -5 -63 -49 -63 -78 0 -12 9 -34 21 -49 l20 -26 275
0 c161 0 283 4 294 10 51 28 38 118 -20 139 -32 11 -475 14 -527 4z"/>
<path d="M715 678 c-51 -29 -60 -84 -20 -123 l24 -25 429 0 c419 0 430 0 456
21 35 28 36 80 1 114 l-24 25 -423 0 c-299 -1 -429 -4 -443 -12z"/>
</g>
</svg>
