<?xml version="1.0" standalone="no"?>
<!DOCTYPE svg PUBLIC "-//W3C//DTD SVG 20010904//EN"
 "http://www.w3.org/TR/2001/REC-SVG-20010904/DTD/svg10.dtd">
<svg version="1.0" xmlns="http://www.w3.org/2000/svg"
 width="20" height="20" viewBox="0 0 512.000000 512.000000"
 preserveAspectRatio="xMidYMid meet">

<g transform="translate(0.000000,512.000000) scale(0.100000,-0.100000)"
fill="#9B9B9B" stroke="none">
<path d="M351 5104 c-118 -32 -237 -125 -293 -230 -62 -115 -58 35 -58 -2305
0 -1389 4 -2155 10 -2190 23 -121 109 -244 216 -309 122 -73 12 -69 1724 -69
1673 -1 1586 -4 1701 55 64 32 138 100 180 165 93 145 92 353 -1 499 -40 62
-122 138 -181 167 -111 55 -58 53 -1436 53 l-1273 0 0 1620 0 1620 1273 0
c1385 0 1324 -2 1438 56 64 32 138 100 180 165 93 145 92 353 -1 499 -40 62
-122 138 -181 167 -112 55 -33 53 -1704 52 -1313 0 -1548 -2 -1594 -15z m3213
-173 c60 -29 117 -85 148 -143 19 -36 23 -58 23 -138 0 -80 -4 -102 -23 -138
-31 -58 -88 -114 -148 -143 l-49 -24 -1367 -3 -1368 -2 0 -1780 0 -1780 1368
-2 1367 -3 49 -24 c60 -29 117 -85 148 -143 19 -36 23 -58 23 -138 0 -80 -4
-102 -23 -138 -31 -58 -88 -114 -148 -143 l-49 -24 -1555 0 c-1505 0 -1557 1
-1604 19 -63 24 -130 86 -164 151 l-27 50 0 2165 c0 2105 1 2166 19 2214 21
56 84 129 130 153 82 43 40 42 1656 40 l1545 -2 49 -24z"/>
<path d="M3587 4029 c-139 -15 -264 -95 -342 -219 -89 -141 -88 -349 2 -493
14 -23 80 -97 146 -164 l121 -123 -992 0 c-683 0 -1007 -3 -1044 -11 -238 -50
-401 -283 -367 -526 26 -188 180 -353 367 -392 37 -8 361 -11 1044 -11 l991 0
-130 -132 c-141 -144 -179 -205 -203 -323 -40 -197 67 -408 255 -501 135 -67
276 -68 414 -2 61 28 113 77 627 592 514 513 564 567 594 628 64 134 64 283
-1 417 -29 60 -83 118 -573 609 -297 299 -563 558 -591 576 -96 63 -201 88
-318 75z m169 -175 c44 -15 102 -69 597 -563 403 -401 556 -559 575 -596 22
-43 26 -63 26 -135 0 -73 -4 -92 -26 -135 -19 -37 -172 -196 -570 -592 -603
-602 -584 -587 -714 -587 -60 0 -81 5 -137 32 -111 55 -171 152 -171 277 0
121 11 136 307 433 l261 262 -1185 0 c-1031 0 -1192 2 -1237 15 -125 37 -215
161 -215 295 0 134 90 258 215 295 45 13 206 15 1237 15 l1185 0 -265 268
c-233 233 -268 273 -283 316 -21 64 -21 159 1 222 21 62 109 152 173 176 58
21 163 22 226 2z"/>
</g>
</svg>
