<?xml version="1.0" standalone="no"?>
<!DOCTYPE svg PUBLIC "-//W3C//DTD SVG 20010904//EN"
 "http://www.w3.org/TR/2001/REC-SVG-20010904/DTD/svg10.dtd">
<svg version="1.0" xmlns="http://www.w3.org/2000/svg"
 width="1024.000000pt" height="1024.000000pt" viewBox="0 0 1024.000000 1024.000000"
 preserveAspectRatio="xMidYMid meet">

<g transform="translate(0.000000,1024.000000) scale(0.100000,-0.100000)"
fill="#000000" stroke="none">
<path d="M7192 9568 c-17 -17 -17 -312 1 -326 7 -6 30 -12 52 -14 l40 -3 5
-85 c3 -47 2 -91 -3 -97 -7 -10 -106 -13 -433 -13 l-424 0 -1 -52 c-1 -29 -5
-145 -8 -258 l-6 -205 -25 0 -25 0 -3 297 c-2 289 -3 298 -23 308 -19 11 -20
10 -9 -10 19 -36 -3 -46 -34 -15 -25 25 -27 26 -163 23 l-138 -3 0 -250 0
-250 153 4 c125 2 152 0 152 -11 0 -33 -23 -38 -174 -38 -83 0 -158 5 -166 10
-12 7 -16 43 -20 182 -5 172 -5 172 -14 83 -4 -49 -9 -103 -11 -120 -2 -16 -4
-52 -5 -80 l-2 -50 -9 40 c-4 22 -8 79 -8 126 -1 138 -13 329 -21 324 -4 -2
-9 -129 -13 -281 -3 -152 -9 -280 -14 -285 -6 -6 -17 -7 -26 -3 -15 5 -17 32
-17 249 0 134 -2 249 -5 257 -4 11 -187 12 -1053 10 -576 -2 -1093 0 -1150 3
l-103 7 3 81 3 82 40 3 c71 6 75 16 75 174 0 77 -5 148 -10 159 -10 17 -22 19
-135 19 -68 0 -126 -4 -129 -8 -2 -4 -6 -74 -7 -155 -3 -177 2 -187 87 -187
63 0 67 -8 62 -105 l-3 -60 -177 -3 -178 -2 0 69 c0 93 4 101 50 101 64 0 70
15 70 181 0 79 -4 150 -8 157 -6 9 -38 12 -123 10 l-114 -3 -6 -145 c-7 -187
-4 -194 86 -202 l30 -3 3 -82 3 -83 -191 0 -190 0 0 80 0 80 35 0 c22 0 43 8
55 20 18 18 20 33 20 153 0 72 -4 138 -8 145 -6 9 -38 12 -123 10 l-114 -3 -2
-145 c-2 -80 1 -152 6 -160 6 -8 28 -15 54 -16 25 -1 50 -5 56 -8 6 -4 11 -39
11 -82 l0 -74 -165 0 -166 0 3 78 3 77 30 3 c17 2 36 11 42 20 16 19 18 248 3
287 l-10 26 -117 -3 -118 -3 -3 -144 c-3 -172 0 -178 87 -183 l56 -3 3 -76 3
-77 -83 -12 c-396 -56 -780 -351 -929 -712 -57 -137 -61 -168 -68 -413 l-6
-230 -95 0 -95 0 -3 30 c-6 54 -11 55 -187 55 -139 0 -164 -2 -169 -16 -11
-29 -7 -179 6 -192 8 -8 60 -12 169 -12 176 0 184 3 184 69 l0 36 95 0 95 0 3
-95 c4 -145 8 -140 -96 -140 -87 0 -88 0 -111 31 l-24 32 -161 -7 c-106 -5
-163 -11 -168 -19 -4 -7 -8 -48 -8 -93 0 -115 -1 -114 188 -114 177 0 182 2
182 85 0 34 5 54 13 57 6 2 49 2 94 0 l82 -3 3 -217 c2 -119 0 -221 -5 -227
-4 -5 -47 -10 -95 -10 -83 0 -87 1 -90 23 -6 42 -34 48 -202 42 l-155 -5 -3
-106 c-2 -89 0 -108 14 -120 22 -18 306 -18 328 0 10 8 16 35 18 74 l3 62 93
3 92 3 0 -150 0 -149 -73 -7 c-98 -9 -111 -6 -115 28 -6 53 -35 60 -195 52
-78 -4 -148 -12 -155 -17 -8 -7 -12 -41 -12 -104 0 -127 -5 -124 178 -124 81
0 154 5 162 10 9 5 17 31 20 67 l5 58 92 3 92 3 3 -393 c2 -216 3 -825 3
-1353 l0 -960 -84 -9 c-84 -9 -84 -9 -103 17 l-20 27 -157 0 c-109 0 -161 -4
-169 -12 -14 -14 -17 -235 -3 -257 19 -30 290 -43 329 -15 20 14 22 23 22 115
l0 99 90 0 90 0 0 -180 0 -181 -102 3 c-94 3 -103 5 -106 23 -8 42 -18 45
-173 45 -185 0 -179 4 -179 -129 0 -134 -4 -131 182 -131 166 0 174 4 171 74
-4 88 -5 87 105 84 l97 -3 3 -142 3 -143 -89 0 c-85 0 -89 1 -100 25 -13 29
-12 29 -207 26 -108 -1 -132 -4 -143 -18 -15 -21 -17 -196 -2 -224 10 -18 23
-19 175 -19 191 0 185 -3 185 104 0 77 3 79 110 74 l65 -3 0 -160 0 -160 -97
-3 -97 -3 -16 31 c-14 27 -21 30 -63 31 -86 2 -257 -3 -264 -7 -13 -8 -9 -179
4 -192 8 -8 57 -12 154 -12 165 0 174 4 174 76 l0 44 104 0 104 0 4 -347 3
-348 32 -88 c49 -139 113 -237 233 -357 140 -141 266 -222 448 -289 66 -25
110 -36 260 -67 20 -4 23 -10 20 -42 -3 -43 -14 -45 -107 -24 -63 14 -72 11
-36 -12 15 -10 48 -17 79 -18 54 -2 54 -2 60 -37 3 -20 6 -78 6 -128 l0 -93
-34 0 c-61 0 -66 -14 -66 -171 0 -177 2 -179 123 -179 51 0 89 5 99 13 12 9
17 42 22 152 8 163 0 185 -60 185 l-34 0 1 98 c1 84 2 91 10 52 9 -45 15 -52
81 -82 30 -13 36 -14 31 -2 -4 10 0 12 11 8 9 -3 13 -11 9 -18 -4 -7 -1 -7 9
1 8 7 18 10 21 6 4 -3 7 -1 7 6 0 7 5 9 10 6 6 -3 10 -1 10 5 0 6 5 8 10 5 6
-3 10 -2 10 4 0 5 -4 11 -8 13 -4 1 0 11 10 20 17 17 18 15 18 -52 0 -61 -2
-70 -18 -70 -37 0 -42 -19 -42 -171 0 -182 -2 -179 114 -179 50 0 87 5 94 12
17 17 17 309 0 326 -7 7 -31 12 -54 12 -24 0 -44 3 -46 8 -2 4 -1 43 2 87 l5
80 19 -32 c11 -18 23 -30 27 -27 6 4 79 15 106 17 7 0 10 4 7 8 -5 9 35 23 43
15 3 -3 11 2 18 11 7 9 21 18 31 19 10 2 20 7 22 13 2 5 10 7 18 4 8 -3 14 0
14 7 0 9 3 10 13 1 10 -8 17 -7 26 2 11 9 14 9 18 0 3 -7 9 -13 14 -13 6 0 7
5 4 10 -3 6 1 10 9 10 9 0 16 -4 16 -10 0 -5 15 -10 33 -9 30 1 30 1 7 8 -25
8 -25 8 7 15 20 5 39 3 50 -4 17 -11 17 -11 0 -6 -11 3 -15 2 -12 -4 8 -14
242 -13 250 0 4 7 21 8 43 4 44 -9 602 -12 596 -3 -2 3 12 6 31 7 22 1 35 -3
35 -11 0 -9 2 -9 8 1 6 9 16 10 33 4 19 -8 302 -8 794 -1 91 2 781 0 860 -2
253 -5 635 -3 635 4 0 4 36 7 81 7 51 0 78 -4 74 -10 -3 -5 -2 -10 4 -10 5 0
12 6 14 13 4 8 6 8 6 1 1 -7 14 -10 34 -7 18 2 53 -1 77 -7 25 -7 62 -14 83
-17 23 -3 37 -10 37 -19 0 -8 8 -14 17 -14 9 0 24 -6 32 -14 9 -7 37 -16 62
-19 48 -6 55 -1 72 53 5 13 10 -52 11 -142 1 -30 -2 -33 -34 -38 l-35 -5 -3
-157 c-3 -195 -8 -188 127 -188 62 0 101 4 109 12 8 8 12 59 12 164 0 147 -1
154 -22 168 -12 9 -42 16 -65 16 l-43 0 0 69 c0 99 12 121 25 46 l10 -60 40 0
c22 0 46 -4 53 -8 7 -5 20 -6 30 -3 9 3 34 8 55 11 36 6 37 5 37 -24 0 -25 -5
-32 -27 -37 -16 -4 -31 -12 -35 -18 -13 -19 -9 -301 4 -314 8 -8 48 -12 115
-12 91 0 103 2 113 19 5 11 10 82 10 159 0 162 -5 172 -83 172 l-47 0 0 41 c0
24 4 38 10 34 6 -3 10 -12 10 -20 0 -14 89 -34 126 -27 11 2 29 18 40 35 l19
32 3 -40 c3 -31 -1 -43 -17 -54 -20 -13 -21 -23 -21 -160 0 -191 -4 -186 130
-186 133 0 130 -4 130 175 0 165 -4 172 -106 178 l-64 4 1 42 c0 37 1 39 10
16 8 -20 12 -22 19 -10 9 13 10 13 10 0 1 -8 7 -1 15 15 7 17 14 24 14 16 1
-9 5 -10 14 -4 6 6 19 9 28 8 9 -2 16 4 16 14 0 37 3 41 28 37 17 -3 28 1 35
13 5 10 29 28 53 39 25 12 47 27 50 34 2 7 16 14 30 16 28 2 82 21 76 26 -2 2
-93 6 -201 7 l-198 4 0 26 0 26 173 6 c135 5 194 11 272 31 248 62 445 169
602 328 96 97 142 161 193 272 73 158 71 140 83 756 l2 115 93 3 92 3 0 -59
c0 -95 3 -96 171 -94 123 1 146 4 156 19 18 24 17 183 -1 209 -13 17 -30 19
-140 23 -150 4 -172 0 -180 -34 -6 -24 -9 -25 -96 -25 -79 0 -90 2 -90 18 0 9
-3 27 -6 39 -5 18 0 25 30 40 37 17 54 49 42 79 -5 14 -45 15 -385 11 -263 -3
-383 -1 -390 6 -13 13 -16 414 -3 419 4 2 91 2 195 0 l187 -3 0 -170 c0 -94
-4 -178 -9 -188 -8 -15 -5 -16 24 -13 l34 4 -2 186 -2 186 153 -3 c149 -3 192
5 176 30 -3 5 -77 9 -165 9 l-159 0 0 63 c-1 97 -11 280 -16 297 -5 13 -8 12
-19 -3 -10 -14 -14 -62 -14 -180 -1 -89 -5 -165 -10 -170 -4 -4 -90 -6 -192
-5 l-184 3 -6 190 c-3 105 -8 199 -10 210 -4 20 3 20 352 25 l357 5 4 1333 c3
754 9 1337 14 1341 5 4 41 5 79 2 l70 -6 3 -48 c3 -41 7 -49 35 -63 27 -14 52
-16 167 -10 74 4 139 11 145 17 5 5 11 47 13 92 5 122 6 121 -171 125 -159 5
-184 -1 -189 -45 -3 -28 -4 -28 -80 -31 l-78 -3 0 156 0 156 77 -3 78 -3 0
-63 c0 -92 5 -94 188 -90 179 4 177 2 177 121 0 122 7 117 -180 117 l-159 0
-16 -30 c-15 -29 -17 -30 -90 -30 l-75 0 0 215 0 216 73 -3 72 -3 3 -45 c2
-27 9 -50 19 -57 12 -9 61 -13 163 -13 102 0 151 4 162 13 19 14 31 148 17
184 -8 23 -11 23 -173 23 -171 0 -180 -2 -188 -45 -3 -18 -11 -20 -78 -20
l-75 0 0 135 0 135 75 0 75 0 3 -48 c5 -73 16 -77 200 -70 178 7 172 3 172
116 0 103 -1 104 -183 103 -166 -1 -187 -7 -187 -53 0 -23 -1 -24 -77 -21
l-78 3 -6 220 c-6 199 -9 229 -33 310 -51 173 -132 310 -266 448 -113 118
-191 176 -335 247 -163 80 -263 108 -444 121 -80 6 -150 12 -156 14 -6 1 -8
36 -5 91 l5 89 42 3 c66 5 73 22 73 180 0 73 -5 142 -10 153 -10 17 -22 19
-135 19 -68 0 -126 -4 -130 -9 -3 -5 -6 -77 -7 -160 -2 -110 1 -154 10 -163 7
-7 39 -15 70 -18 l57 -5 3 -92 3 -93 -176 0 -175 0 0 84 c0 92 3 97 58 102 20
2 39 9 44 16 13 21 10 312 -4 326 -8 8 -47 12 -108 12 -61 0 -100 -4 -108 -12z
m-947 -529 c0 -24 -5 -34 -15 -34 -16 0 -25 37 -16 62 10 26 31 8 31 -28z
m889 -91 c24 -34 23 -393 -1 -420 -20 -22 -59 -23 -71 -2 -8 14 -35 17 -196
18 -173 1 -189 2 -202 20 -11 16 -14 61 -14 207 0 170 2 188 18 192 9 3 115 5
234 6 213 1 217 1 232 -21z m-3675 -110 c11 -28 6 -38 -20 -38 -25 0 -35 25
-19 45 17 21 29 19 39 -7z m2815 6 c9 -3 16 -14 16 -24 0 -14 -12 -19 -57 -24
-33 -4 -60 -3 -66 3 -16 16 10 39 46 44 18 2 35 5 39 5 3 1 13 -1 22 -4z
m-3094 -24 c0 -5 -7 -10 -15 -10 -8 0 -15 5 -15 10 0 6 7 10 15 10 8 0 15 -4
15 -10z m4348 -83 c4 -22 -27 -35 -39 -16 -5 8 -9 20 -9 27 0 20 44 10 48 -11z
m216 4 c8 -12 -21 -34 -34 -26 -17 11 -11 35 9 35 11 0 22 -4 25 -9z m-4944
-71 c0 -13 -7 -20 -18 -20 -24 0 -32 8 -25 26 8 22 43 17 43 -6z m960 -19 c0
-11 -26 -22 -34 -14 -12 12 -5 23 14 23 11 0 20 -4 20 -9z m-1355 -11 c3 -5 2
-10 -4 -10 -5 0 -13 5 -16 10 -3 6 -2 10 4 10 5 0 13 -4 16 -10z m3175 -15 c0
-8 -4 -15 -9 -15 -13 0 -22 16 -14 24 11 11 23 6 23 -9z m-690 -5 c0 -5 -4
-10 -10 -10 -5 0 -10 5 -10 10 0 6 5 10 10 10 6 0 10 -4 10 -10z m-1818 -23
c14 -21 9 -46 -11 -57 -26 -14 -74 -13 -89 2 -20 20 -14 58 11 68 27 12 78 4
89 -13z m1746 -4 c-2 -10 -12 -18 -23 -18 -11 0 -21 8 -23 18 -3 13 3 17 23
17 20 0 26 -4 23 -17z m357 -13 c0 -8 -10 -16 -22 -18 -18 -3 -23 2 -23 18 0
16 5 21 23 18 12 -2 22 -10 22 -18z m352 -6 c8 -21 -13 -42 -28 -27 -13 13 -5
43 11 43 6 0 13 -7 17 -16z m-2879 -11 c-4 -20 -35 -30 -50 -15 -15 15 0 32
28 32 19 0 25 -5 22 -17z m1830 5 c17 -17 15 -47 -3 -54 -30 -12 -65 5 -65 30
0 34 43 49 68 24z m-523 -7 c7 -12 -12 -24 -25 -16 -11 7 -4 25 10 25 5 0 11
-4 15 -9z m3748 -5 c3 -12 -30 -32 -39 -24 -11 12 5 40 21 36 9 -2 17 -7 18
-12z m-1798 -16 c3 -5 1 -10 -4 -10 -6 0 -11 5 -11 10 0 6 2 10 4 10 3 0 8 -4
11 -10z m2165 -60 c0 -13 -7 -20 -20 -20 -13 0 -20 7 -20 20 0 13 7 20 20 20
13 0 20 -7 20 -20z m-2800 -50 c20 -36 -3 -60 -58 -60 -50 0 -72 12 -72 40 0
28 22 40 72 40 37 0 50 -4 58 -20z m-1160 -45 c10 -12 10 -21 1 -41 -10 -22
-16 -25 -59 -22 -41 3 -47 6 -50 26 -6 41 4 52 51 52 28 0 49 -6 57 -15z
m-2054 -50 c8 -33 -11 -55 -48 -55 -39 0 -68 16 -68 38 0 29 21 42 67 42 37 0
43 -3 49 -25z m270 17 c18 -12 23 -39 11 -57 -10 -12 -25 -15 -67 -13 -52 3
-55 4 -58 32 -2 16 2 32 10 37 16 11 89 11 104 1z m5905 -172 c-2 -80 -7 -147
-11 -150 -4 -3 -75 -3 -156 0 l-149 5 -5 138 c-3 75 -3 142 -2 147 3 7 64 9
165 8 l162 -3 -4 -145z m-3241 114 c11 -12 11 -18 -1 -30 -13 -12 -18 -12 -34
-1 -11 9 -16 20 -12 31 8 20 31 21 47 0z m-3312 -11 c-2 -10 -10 -18 -18 -18
-8 0 -16 8 -18 18 -2 12 3 17 18 17 15 0 20 -5 18 -17z m732 -123 c0 -5 -9
-10 -20 -10 -11 0 -20 5 -20 10 0 6 9 10 20 10 11 0 20 -4 20 -10z m2239 -7
c21 -5 23 -10 17 -47 -3 -23 -9 -69 -12 -103 -8 -73 -5 -71 -124 -69 l-85 1
-10 98 c-6 54 -7 104 -2 112 6 12 30 15 100 15 51 0 103 -3 116 -7z m-2508
-86 c-13 -13 -26 -3 -16 12 3 6 11 8 17 5 6 -4 6 -10 -1 -17z m1140 8 c0 -5
-9 -11 -21 -13 -20 -3 -27 8 -13 22 10 9 34 3 34 -9z m593 0 c-4 -8 -10 -12
-15 -9 -14 8 -10 24 6 24 9 0 12 -6 9 -15z m1910 -58 c12 -9 17 -23 14 -42 -3
-28 -7 -30 -46 -33 -50 -4 -72 10 -72 44 0 40 65 59 104 31z m1318 -21 c23
-34 -5 -66 -57 -66 -40 0 -65 18 -65 46 0 16 8 28 23 34 26 10 89 2 99 -14z
m-1848 -75 c3 -4 0 -15 -7 -24 -15 -21 -43 -6 -34 17 7 17 32 22 41 7z m2052
-2 c10 -17 -13 -36 -27 -22 -12 12 -4 33 11 33 5 0 12 -5 16 -11z m-5038 -18
c16 -8 17 -18 11 -88 -4 -43 -8 -106 -8 -140 l-1 -63 -159 0 -159 0 -4 128
c-2 70 -6 134 -8 142 -4 13 13 16 106 20 60 3 131 6 157 8 26 2 55 -1 65 -7z
m1577 -41 l0 -35 -58 -3 c-61 -3 -87 8 -87 37 0 32 22 42 85 39 l60 -3 0 -35z
m-1230 -35 c0 -36 -33 -51 -88 -41 -28 5 -38 13 -43 31 -10 39 3 46 69 43 61
-3 62 -3 62 -33z m5910 -6 c0 -7 -8 -15 -17 -17 -18 -3 -25 18 -11 32 10 10
28 1 28 -15z m-195 -3 c36 -44 -25 -95 -78 -65 -32 18 -39 41 -17 63 20 20 78
21 95 2z m-3235 -56 c0 -8 -10 -16 -22 -18 -22 -3 -32 16 -16 32 12 11 38 2
38 -14z m2185 -30 c0 -5 -7 -10 -15 -10 -8 0 -15 5 -15 10 0 6 7 10 15 10 8 0
15 -4 15 -10z m565 -46 c12 -12 14 -27 9 -67 -4 -29 -11 -57 -15 -63 -5 -6 -6
-25 -3 -43 9 -45 -7 -59 -69 -58 -59 0 -77 10 -70 37 10 38 31 45 58 20 l25
-23 9 24 c12 34 -3 51 -35 38 -17 -6 -32 -5 -46 2 -26 14 -32 6 -30 -40 3 -40
-11 -61 -24 -39 -14 22 -24 201 -12 215 16 20 182 18 203 -3z m-1250 -24 c3
-11 3 -29 0 -40 -5 -17 -15 -20 -70 -20 -79 0 -106 20 -89 64 5 13 22 16 79
16 65 0 74 -2 80 -20z m445 -256 c102 -48 144 -125 142 -259 -1 -82 -7 -109
-66 -295 -37 -113 -96 -302 -132 -420 -42 -138 -75 -227 -91 -249 -31 -40
-118 -82 -223 -107 -67 -15 -155 -18 -804 -21 l-730 -4 -18 23 c-37 46 -40 57
-15 50 12 -3 25 -10 29 -16 5 -8 133 -10 425 -9 791 5 964 8 971 18 4 6 21 11
37 13 17 1 39 7 50 12 11 5 42 18 68 29 46 20 152 90 145 96 -2 2 -35 -12 -73
-31 -127 -61 -139 -62 -905 -69 l-695 -7 -28 22 -28 23 -35 -34 c-19 -18 -34
-39 -34 -46 0 -7 20 -35 45 -63 25 -28 45 -59 45 -69 0 -11 -32 -124 -71 -252
-76 -250 -151 -502 -167 -559 -5 -19 -46 -154 -90 -300 -44 -146 -106 -353
-137 -460 -32 -107 -95 -316 -140 -465 -46 -148 -100 -326 -120 -395 -90 -307
-179 -589 -201 -631 -15 -30 -33 -50 -52 -58 -21 -9 -122 -11 -378 -9 l-349 3
-55 26 c-30 15 -70 42 -89 60 -36 36 -81 121 -81 154 0 22 -2 16 140 490 190
637 221 740 240 810 33 121 179 626 210 725 48 158 61 205 51 195 -10 -11 -42
-102 -66 -188 -8 -28 -35 -110 -60 -182 -46 -131 -103 -302 -106 -320 -1 -5
-8 -32 -16 -60 -9 -27 -16 -55 -17 -61 -1 -7 -7 -18 -12 -25 -6 -8 -14 -23
-18 -33 -3 -10 -8 -17 -11 -14 -4 4 86 304 104 343 5 11 25 81 46 155 69 252
211 709 256 825 l24 60 5 -45 6 -45 13 45 c36 124 38 127 135 200 50 39 117
90 149 114 l58 45 -30 33 -30 33 -37 -20 c-36 -19 -57 -20 -638 -20 -499 0
-607 2 -636 14 -59 25 -144 87 -188 138 -25 28 -41 42 -42 32 0 -31 62 -108
128 -158 37 -28 72 -55 79 -61 7 -5 22 -10 33 -10 12 0 19 -4 15 -9 -11 -18
60 -21 610 -23 303 -2 556 -7 564 -12 11 -7 11 -10 0 -17 -8 -5 -269 -9 -580
-9 -615 0 -691 5 -787 54 -90 46 -161 145 -170 235 -5 52 15 131 118 466 32
105 72 248 91 318 19 77 43 146 60 172 32 51 107 105 169 122 35 9 484 11
1995 10 l1950 -2 45 -21z m1571 -79 c0 -5 -9 -11 -21 -13 -20 -3 -27 8 -13 22
10 9 34 3 34 -9z m-6061 -159 c6 -8 10 -25 8 -38 -3 -21 -9 -23 -69 -26 -78
-3 -100 11 -81 53 10 23 18 25 71 25 39 0 63 -5 71 -14z m5744 -79 c11 -8 17
-23 14 -38 -3 -22 -8 -24 -57 -27 -76 -4 -101 3 -101 31 0 13 5 28 12 35 16
16 110 15 132 -1z m230 -76 c3 -5 0 -13 -7 -19 -15 -13 -42 1 -33 17 9 13 33
15 40 2z m-6494 -35 c6 -8 10 -25 8 -38 -2 -19 -10 -23 -46 -26 -24 -2 -50 2
-58 9 -19 16 -18 46 4 58 25 15 78 13 92 -3z m5480 -160 c0 -11 -19 -15 -25
-6 -3 5 1 10 9 10 9 0 16 -2 16 -4z m532 -121 c17 -38 -3 -55 -68 -55 -48 0
-56 3 -66 24 -19 43 -5 56 62 56 55 0 62 -2 72 -25z m219 15 c21 -12 25 -50 7
-68 -28 -28 -98 -4 -98 33 0 16 38 45 58 45 7 0 22 -5 33 -10z m307 -11 c-2
-6 -8 -10 -13 -10 -5 0 -11 4 -13 10 -2 6 4 11 13 11 9 0 15 -5 13 -11z m-104
-709 c15 -5 26 -17 26 -28 0 -17 -8 -20 -67 -21 -47 -1 -71 -6 -79 -16 -15
-21 -21 -19 -28 9 -8 31 1 54 22 59 32 9 101 7 126 -3z m-806 -22 c-3 -7 -11
-13 -18 -13 -7 0 -15 6 -17 13 -3 7 4 12 17 12 13 0 20 -5 18 -12z m-5653 -77
c3 -5 1 -13 -5 -16 -15 -9 -43 3 -35 15 8 13 32 13 40 1z m6328 -26 c-7 -21
-13 -19 -13 6 0 11 4 18 10 14 5 -3 7 -12 3 -20z m147 -83 c0 -27 -92 -42
-131 -22 -41 22 -21 35 56 35 54 0 75 -4 75 -13z m-15 -102 c3 -5 -3 -10 -15
-10 -12 0 -18 5 -15 10 3 6 10 10 15 10 5 0 12 -4 15 -10z m-306 -66 l61 -7 0
-77 c0 -81 -15 -118 -43 -107 -12 4 -15 15 -10 41 3 19 2 43 -1 53 -7 17 -8
17 -21 0 -9 -12 -10 -29 -5 -52 7 -32 6 -36 -16 -41 -41 -10 -54 1 -47 40 8
49 -2 73 -23 55 -11 -9 -13 -22 -9 -51 5 -30 3 -39 -9 -44 -9 -3 -22 -1 -30 5
-18 15 -30 159 -15 177 13 15 70 18 168 8z m502 -67 c-1 -12 -15 -9 -19 4 -3
6 1 10 8 8 6 -3 11 -8 11 -12z m-6004 -121 c7 -7 4 -396 -3 -408 -3 -4 -54 -8
-113 -8 -80 0 -112 4 -120 14 -8 9 -11 73 -9 207 l3 194 30 7 c34 8 203 4 212
-6z m4693 -245 c100 -41 163 -109 201 -222 22 -65 22 -70 11 -215 -21 -258
-49 -340 -129 -380 -34 -17 -62 -19 -268 -19 -126 0 -304 2 -395 5 -130 5 -95
6 170 8 192 1 351 7 372 12 23 7 50 26 73 52 40 47 46 68 13 44 -42 -29 -93
-53 -128 -59 -19 -4 -269 -7 -556 -8 l-521 -1 -52 26 c-40 21 -56 24 -71 16
-22 -12 -40 -41 -40 -63 0 -17 67 -101 98 -123 12 -8 113 -31 224 -50 468 -81
555 -111 665 -226 55 -59 80 -103 108 -187 14 -44 17 -77 13 -175 -8 -181 -58
-313 -184 -483 -92 -124 -231 -211 -399 -249 -72 -17 -142 -19 -724 -22 -577
-3 -649 -1 -695 14 -68 22 -133 59 -178 102 -21 20 -38 31 -38 24 0 -23 48
-88 86 -117 22 -16 45 -35 52 -41 16 -16 16 -37 0 -28 -10 5 -10 4 -2 -5 22
-24 186 -29 814 -27 468 2 656 6 685 15 22 6 49 14 60 16 75 17 166 78 270
180 83 82 144 174 188 284 23 57 33 46 17 -19 -26 -110 -176 -304 -301 -390
-67 -46 -101 -61 -199 -86 -71 -18 -119 -19 -815 -19 l-740 0 -43 25 c-51 29
-81 75 -116 180 -41 125 -41 128 7 328 25 100 52 193 60 206 9 13 37 34 64 47
l48 24 628 5 629 5 29 33 c36 41 36 57 0 91 -33 31 -98 52 -251 82 -144 27
-327 74 -392 99 -172 68 -277 159 -353 307 -44 86 -29 2 18 -97 6 -14 33 -49
60 -77 26 -29 53 -66 58 -82 9 -24 23 -34 87 -59 42 -17 93 -35 112 -41 54
-16 295 -67 400 -85 128 -22 223 -52 239 -78 7 -11 11 -22 9 -24 -2 -1 -26 8
-53 21 -33 17 -130 40 -290 70 -456 86 -548 117 -646 215 -160 159 -166 331
-22 645 83 182 130 261 206 342 116 124 305 220 482 246 17 2 318 4 670 3 524
-1 646 -4 675 -15z m-5466 -77 c20 -20 20 -33 -1 -56 -41 -45 -138 -1 -105 48
17 26 83 31 106 8z m6357 -94 c16 -9 19 -22 19 -95 0 -56 -4 -86 -12 -92 -22
-13 -193 -16 -217 -4 -19 11 -21 20 -21 101 0 61 4 90 13 93 23 10 198 7 218
-3z m-87 -310 c49 0 66 -3 56 -10 -8 -5 -54 -10 -102 -10 -75 0 -88 2 -88 16
0 13 7 15 31 10 17 -3 64 -6 103 -6z m-1986 -340 c40 0 34 -16 -9 -22 -21 -3
-38 1 -52 14 l-22 20 25 -6 c14 -3 40 -6 58 -6z m-3843 -70 c3 -5 2 -47 -1
-95 -6 -69 -11 -88 -26 -96 -28 -15 -38 -3 -27 35 7 24 5 43 -5 66 l-14 33
-12 -23 c-7 -12 -13 -43 -14 -69 -1 -39 -4 -46 -21 -46 -17 0 -20 7 -20 40 0
44 -12 85 -25 85 -13 0 -20 -28 -20 -81 0 -42 -3 -49 -20 -49 -17 0 -20 7 -20
43 0 23 -5 61 -10 85 -18 74 -8 81 120 80 61 0 112 -4 115 -8z m690 -90 c0
-18 -6 -26 -23 -28 -13 -2 -25 3 -28 12 -10 26 4 48 28 44 17 -2 23 -10 23
-28z m391 -177 c-10 -26 -18 -8 -9 23 5 21 8 24 11 11 2 -10 1 -25 -2 -34z
m-25 -54 c-5 -13 -10 -19 -10 -12 -1 15 10 45 15 40 3 -2 0 -15 -5 -28z m4587
-161 c32 -32 1 -68 -58 -68 -61 0 -87 31 -54 64 18 19 94 22 112 4z m-4701
-230 c-8 -4 -18 -31 -22 -63 -3 -30 -10 -57 -15 -60 -4 -3 -11 -21 -14 -41 -8
-38 -46 -109 -46 -84 0 7 24 86 53 174 45 140 52 156 55 122 2 -27 -1 -42 -11
-48z m4291 -1 c2 -9 -4 -20 -13 -23 -20 -8 -50 19 -40 36 10 17 49 8 53 -13z
m286 -183 c33 -32 11 -64 -44 -64 -39 0 -60 14 -60 42 0 36 75 52 104 22z
m-4677 -106 c-3 -8 -6 -5 -6 6 -1 11 2 17 5 13 3 -3 4 -12 1 -19z m-18 -125
c1 -42 6 -95 13 -117 6 -23 12 -46 12 -51 1 -12 16 -31 63 -81 20 -21 30 -40
26 -50 -3 -8 0 -26 7 -40 11 -19 16 -21 27 -12 11 9 13 8 11 -2 -5 -24 65 -29
447 -31 339 -2 357 -3 215 -11 -85 -5 -274 -7 -420 -6 -259 3 -266 4 -297 26
-73 52 -117 150 -128 288 -6 69 5 164 19 164 2 0 4 -34 5 -77z m4785 -29 c20
-20 20 -29 0 -49 -13 -12 -26 -15 -58 -9 -22 3 -44 8 -48 11 -10 5 -10 47 -1
56 13 14 92 7 107 -9z m-3754 -323 c0 -21 -13 -41 -26 -41 -17 0 -18 22 -2 38
14 14 28 16 28 3z m428 -44 c6 -28 -16 -49 -39 -36 -19 10 -25 39 -12 53 13
13 48 1 51 -17z m2702 -67 c0 -5 -7 -10 -15 -10 -8 0 -15 5 -15 10 0 6 7 10
15 10 8 0 15 -4 15 -10z m-5202 -37 c2 -8 -5 -13 -17 -13 -12 0 -21 6 -21 16
0 18 31 15 38 -3z m397 -103 l0 -35 -50 0 c-45 0 -50 2 -53 23 -6 44 4 53 55
50 48 -3 48 -3 48 -38z m565 -16 c11 -12 11 -18 -2 -30 -18 -18 -48 -8 -48 15
0 33 28 42 50 15z m-1413 -70 c3 -8 -1 -22 -9 -30 -12 -12 -17 -12 -33 -1 -23
17 -14 47 15 47 11 0 23 -7 27 -16z m5153 -200 c17 -17 2 -161 -17 -168 -25
-10 -33 3 -27 47 3 23 0 49 -6 57 -9 13 -12 12 -26 -5 -14 -18 -14 -31 -2 -86
2 -10 -7 -14 -32 -14 l-35 0 3 46 c4 51 -9 69 -34 48 -11 -9 -13 -23 -9 -51 5
-30 3 -39 -10 -44 -28 -11 -43 18 -48 94 -4 65 -2 74 14 80 31 12 217 8 229
-4z m1245 -49 c0 -28 -3 -30 -39 -33 -60 -5 -86 5 -86 32 0 33 8 37 70 34 54
-3 55 -4 55 -33z m-5958 -119 c12 -11 2 -290 -10 -298 -7 -4 -79 -8 -160 -8
-109 0 -149 3 -152 13 -2 6 -5 76 -7 154 -4 121 -2 143 11 145 28 6 312 0 318
-6z m2088 -41 c0 -32 -18 -41 -61 -31 -17 5 -24 13 -24 30 0 31 9 37 50 34 32
-3 35 -6 35 -33z m-1711 -35 c29 -11 34 -41 12 -59 -8 -7 -34 -11 -58 -9 -40
3 -43 5 -43 33 0 25 5 31 30 36 17 4 31 7 32 8 1 0 13 -3 27 -9z m5970 -32
c16 -25 -11 -49 -41 -37 -25 9 -30 28 -11 47 16 16 38 12 52 -10z m-612 -15
c2 -5 1 -71 -2 -148 l-5 -140 -215 0 -215 0 -5 120 c-3 66 -10 128 -14 139 -6
12 -4 21 5 27 17 11 446 12 451 2z m-2947 -103 c0 -20 -6 -26 -28 -28 -32 -4
-46 20 -26 44 19 24 54 14 54 -16z m491 -14 c15 -12 17 -18 8 -33 -15 -24 -92
-25 -107 -1 -25 39 54 66 99 34z m1175 -146 c10 -6 19 -17 19 -25 0 -14 -29
-35 -49 -35 -15 0 -32 36 -25 54 7 18 27 20 55 6z m-3413 -54 c5 -22 -13 -35
-39 -29 -19 5 -26 33 -12 47 13 13 48 1 51 -18z m836 -112 c15 -40 -41 -76
-93 -58 -26 10 -37 33 -27 60 8 21 112 20 120 -2z m-1404 -331 l0 -28 -120 0
-120 0 0 28 0 27 120 0 120 0 0 -27z m4433 15 c2 -7 1 -20 -2 -28 -5 -13 -259
-15 -2193 -16 l-2188 0 0 28 0 28 2189 0 c1742 0 2190 -3 2194 -12z m297 -13
l0 -25 -125 0 -125 0 0 25 0 25 125 0 125 0 0 -25z m260 0 l0 -25 -103 0 c-57
0 -107 3 -110 6 -3 4 -2 15 4 25 8 17 22 19 109 19 100 0 100 0 100 -25z"/>
<path d="M6728 8903 l-38 -4 0 -139 c0 -76 3 -145 6 -154 5 -14 30 -16 170
-16 205 0 196 -9 191 173 -2 70 -7 130 -11 134 -8 9 -257 13 -318 6z m285
-237 c8 -21 -2 -26 -59 -26 -52 0 -71 10 -59 30 10 16 112 13 118 -4z"/>
<path d="M4485 8030 c-3 -5 -1 -18 4 -27 9 -16 10 -14 11 10 0 28 -5 34 -15
17z"/>
<path d="M4570 8000 c0 -22 5 -40 10 -40 6 0 10 18 10 40 0 22 -4 40 -10 40
-5 0 -10 -18 -10 -40z"/>
<path d="M6530 7162 c0 -20 31 -82 40 -82 15 0 12 26 -5 40 -8 7 -15 18 -15
26 0 7 -4 16 -10 19 -5 3 -10 2 -10 -3z"/>
<path d="M3452 7143 c-7 -3 -19 -18 -28 -34 l-15 -30 30 16 c19 9 31 23 31 35
0 11 -1 20 -2 19 -2 0 -9 -3 -16 -6z"/>
<path d="M3120 7105 c0 -8 7 -15 15 -15 8 0 15 7 15 15 0 8 -7 15 -15 15 -8 0
-15 -7 -15 -15z"/>
<path d="M6930 6985 c-15 -40 -13 -45 22 -45 25 0 29 3 20 12 -7 7 -12 20 -12
29 0 30 -19 32 -30 4z"/>
<path d="M5440 6990 c0 -5 7 -10 16 -10 8 0 12 5 9 10 -3 6 -10 10 -16 10 -5
0 -9 -4 -9 -10z"/>
<path d="M6572 6959 c-66 -33 -95 -79 -100 -155 -5 -73 5 -81 44 -35 40 48 87
65 162 58 36 -4 75 -13 88 -22 22 -14 64 -82 64 -104 0 -19 -65 -84 -97 -97
-87 -37 -194 -1 -244 81 l-19 30 0 -31 c0 -21 12 -44 36 -72 83 -97 186 -106
276 -24 52 47 65 75 73 159 9 85 -3 128 -48 171 -65 63 -157 79 -235 41z"/>
<path d="M3125 6956 c-42 -19 -94 -76 -105 -117 -6 -18 -10 -63 -10 -99 0 -79
26 -128 90 -171 35 -24 54 -29 100 -29 50 0 63 4 102 35 42 31 47 41 68 117
27 99 23 147 -17 197 -56 70 -156 99 -228 67z m155 -167 c43 -25 74 -73 69
-109 -3 -14 -22 -37 -47 -57 -37 -28 -52 -33 -98 -33 -64 0 -85 9 -136 58 -45
43 -47 66 -10 110 44 54 155 69 222 31z"/>
<path d="M3500 6881 c0 -5 7 -14 15 -21 18 -15 42 1 31 19 -8 13 -46 15 -46 2z"/>
<path d="M6220 6530 c0 -11 7 -20 15 -20 17 0 18 2 9 24 -9 23 -24 20 -24 -4z"/>
<path d="M3047 6473 c-4 -3 -7 -11 -7 -17 0 -6 5 -5 12 2 6 6 9 14 7 17 -3 3
-9 2 -12 -2z"/>
<path d="M6770 6452 c0 -11 7 -25 16 -33 14 -11 15 -9 12 16 -3 32 -28 47 -28
17z"/>
<path d="M6394 6429 c-10 -17 13 -36 27 -22 12 12 4 33 -11 33 -5 0 -12 -5
-16 -11z"/>
<path d="M2997 6403 c-13 -12 -7 -33 8 -33 8 0 15 9 15 20 0 20 -11 26 -23 13z"/>
<path d="M3420 6380 c0 -20 5 -30 15 -30 21 0 30 27 15 45 -19 23 -30 18 -30
-15z"/>
<path d="M6057 6393 c-10 -10 -8 -33 3 -33 5 0 14 9 20 20 8 15 8 20 -3 20 -8
0 -17 -3 -20 -7z"/>
<path d="M4714 5895 c-15 -10 -16 -16 -7 -26 14 -15 43 -5 43 15 0 22 -15 27
-36 11z"/>
<path d="M4886 5821 c-7 -11 3 -41 14 -41 13 0 32 29 25 40 -8 12 -32 13 -39
1z"/>
<path d="M3941 5684 c0 -11 3 -14 6 -6 3 7 2 16 -1 19 -3 4 -6 -2 -5 -13z"/>
<path d="M3930 5657 c0 -1 -4 -18 -10 -36 -5 -19 -6 -30 -1 -25 10 11 24 64
16 64 -3 0 -5 -1 -5 -3z"/>
<path d="M3603 3843 c-7 -3 -13 -10 -13 -18 0 -16 27 -39 33 -28 8 15 -8 50
-20 46z"/>
<path d="M4130 3700 c0 -5 5 -10 11 -10 5 0 7 5 4 10 -3 6 -8 10 -11 10 -2 0
-4 -4 -4 -10z"/>
<path d="M3951 3511 c-16 -28 7 -41 38 -22 12 8 12 12 2 25 -18 21 -28 20 -40
-3z"/>
<path d="M3575 3464 c-77 -40 -103 -86 -112 -193 -5 -74 -4 -83 21 -126 52
-87 146 -132 218 -102 48 20 106 73 129 118 35 69 22 191 -28 249 -54 65 -160
90 -228 54z m147 -153 c32 -12 88 -71 88 -92 0 -26 -49 -80 -87 -95 -80 -34
-193 4 -222 74 -18 42 -10 57 46 92 37 23 58 30 99 30 29 0 63 -4 76 -9z"/>
<path d="M3994 3155 c-9 -23 3 -45 26 -45 23 0 27 29 8 48 -16 16 -27 15 -34
-3z"/>
<path d="M2477 5380 c-13 -11 -28 -31 -31 -45 -15 -59 65 -131 117 -104 45 24
57 41 57 85 0 34 -5 47 -26 63 -34 26 -84 27 -117 1z"/>
<path d="M7110 4964 c0 -17 22 -14 28 4 2 7 -3 12 -12 12 -9 0 -16 -7 -16 -16z"/>
<path d="M5960 4960 c0 -5 5 -10 10 -10 6 0 10 5 10 10 0 6 -4 10 -10 10 -5 0
-10 -4 -10 -10z"/>
<path d="M7167 4789 c-26 -15 -50 -68 -43 -95 10 -37 56 -74 94 -74 47 0 92
46 92 93 0 64 -86 109 -143 76z"/>
<path d="M6554 4546 c-9 -24 12 -44 28 -28 10 10 8 16 -5 29 -15 15 -17 15
-23 -1z"/>
<path d="M6930 4535 c0 -8 5 -15 10 -15 6 0 10 7 10 15 0 8 -4 15 -10 15 -5 0
-10 -7 -10 -15z"/>
<path d="M6397 4004 c9 -15 19 -21 21 -15 4 13 -16 41 -29 41 -5 0 -2 -12 8
-26z"/>
<path d="M5360 3425 c-13 -16 -7 -45 10 -45 9 0 30 40 30 56 0 10 -29 3 -40
-11z"/>
<path d="M5209 3231 c-39 -39 -40 -87 -1 -123 39 -39 72 -48 107 -33 39 16 55
36 62 79 5 31 1 40 -30 71 -46 46 -95 49 -138 6z"/>
<path d="M5110 3120 c-12 -23 -3 -25 23 -6 21 16 22 26 2 26 -8 0 -19 -9 -25
-20z"/>
<path d="M6569 3114 c-12 -14 -11 -16 5 -13 11 2 21 10 24 17 5 17 -13 15 -29
-4z"/>
<path d="M8038 4968 c-3 -7 -2 -38 1 -68 l6 -55 92 -3 c109 -3 106 -7 94 126
-1 9 -27 12 -95 12 -66 0 -95 -4 -98 -12z"/>
<path d="M9168 3869 c-10 -5 -18 -18 -18 -27 0 -31 -22 -42 -82 -42 -32 0 -58
-4 -58 -10 0 -6 28 -10 65 -10 l65 0 0 -74 c0 -60 4 -78 21 -101 l22 -27 134
4 c174 4 173 3 173 159 0 141 2 139 -175 139 -71 0 -138 -5 -147 -11z"/>
<path d="M8258 3653 c-3 -82 -2 -152 2 -156 12 -13 298 -13 311 0 8 8 9 54 3
155 l-9 143 -151 3 -151 3 -5 -148z"/>
<path d="M8695 3649 c-4 -82 -6 -152 -3 -154 3 -3 208 -8 256 -6 9 1 12 39 12
156 l0 155 -129 0 -129 0 -7 -151z"/>
<path d="M9162 3498 c-5 -7 -13 -23 -16 -35 -6 -19 -15 -22 -69 -25 -47 -2
-62 -7 -62 -18 0 -12 13 -15 60 -15 l60 0 3 -45 c7 -121 11 -123 186 -115 112
5 144 10 154 23 16 21 17 213 0 230 -17 17 -302 17 -316 0z"/>
<path d="M8383 3372 l-123 -3 0 -138 c0 -117 2 -140 16 -145 9 -3 73 -6 144
-6 71 0 135 3 144 6 14 5 16 27 16 140 l0 134 -27 6 c-16 3 -32 6 -38 7 -5 1
-65 1 -132 -1z"/>
<path d="M8696 3354 c-12 -30 -7 -249 6 -262 8 -8 50 -12 124 -12 136 0 150 8
140 78 -3 25 -6 82 -6 128 l0 84 -129 0 c-108 0 -130 -3 -135 -16z"/>
<path d="M9169 3200 c-9 -5 -20 -21 -23 -34 -6 -23 -12 -25 -69 -28 -47 -2
-62 -7 -62 -18 0 -11 15 -16 63 -18 l62 -3 0 -63 c0 -100 2 -101 171 -97 183
3 179 0 179 132 0 130 1 129 -148 129 -64 0 -126 2 -137 5 -11 3 -27 1 -36 -5z"/>
<path d="M2030 1230 c0 -5 5 -10 11 -10 5 0 7 5 4 10 -3 6 -8 10 -11 10 -2 0
-4 -4 -4 -10z"/>
<path d="M2065 1210 c3 -5 10 -10 16 -10 5 0 9 5 9 10 0 6 -7 10 -16 10 -8 0
-12 -4 -9 -10z"/>
<path d="M6463 1113 c9 -2 23 -2 30 0 6 3 -1 5 -18 5 -16 0 -22 -2 -12 -5z"/>
</g>
</svg>
